<?xml version="1.0" standalone="no"?><!DOCTYPE svg PUBLIC "-//W3C//DTD SVG 1.1//EN" "http://www.w3.org/Graphics/SVG/1.1/DTD/svg11.dtd"><svg t="1605073941804" class="icon" viewBox="0 0 1024 1024" version="1.1" xmlns="http://www.w3.org/2000/svg" p-id="29825" xmlns:xlink="http://www.w3.org/1999/xlink" width="200" height="200"><defs><style type="text/css"></style></defs><path d="M512 1008v-192.2c203.6 0 361.6-201.8 283.4-416-28.6-79.2-92.2-142.8-171.6-171.4-214.2-77.6-416.2 79.8-416.2 283.4H16C16 187.4 329.8-65.6 670 40.6c148.4 46.6 267.2 164.8 313.2 313.2C1089.6 694.4 837.2 1008 512 1008z m0.6-382.8h-191.2v191.2h191.2v-191.2z m-191.2 191.2H174v147.2h147.4v-147.2zM174 693.2H50.8v123.2H174v-123.2z" fill="#ffffff" p-id="29826" data-spm-anchor-id="a313x.7781069.0.i16" class="selected"></path></svg>