<?xml version="1.0" standalone="no"?><!DOCTYPE svg PUBLIC "-//W3C//DTD SVG 1.1//EN" "http://www.w3.org/Graphics/SVG/1.1/DTD/svg11.dtd"><svg t="1604402596710" class="icon" viewBox="0 0 1024 1024" version="1.1" xmlns="http://www.w3.org/2000/svg" p-id="1146" xmlns:xlink="http://www.w3.org/1999/xlink" width="200" height="200"><defs><style type="text/css"></style></defs><path d="M927.450037 511.745197H95.961562c-17.662265 0-31.980365 14.3181-31.980365 31.980365s14.3181 31.980365 31.980365 31.980365h831.488475c17.662265 0 31.980365-14.3181 31.980365-31.980365s-14.3181-31.980365-31.980365-31.980365zM927.450037 191.942567H95.961562c-17.662265 0-31.980365 14.3181-31.980365 31.980365s14.3181 31.980365 31.980365 31.980366h831.488475c17.662265 0 31.980365-14.3181 31.980365-31.980366s-14.3181-31.980365-31.980365-31.980365zM927.450037 831.54885H95.961562c-17.662265 0-31.980365 14.3181-31.980365 31.980365s14.3181 31.980365 31.980365 31.980366h831.488475c17.662265 0 31.980365-14.3181 31.980365-31.980366s-14.3181-31.980365-31.980365-31.980365z" p-id="1147" fill="#515151"></path></svg>