<?xml version="1.0" standalone="no"?><!DOCTYPE svg PUBLIC "-//W3C//DTD SVG 1.1//EN" "http://www.w3.org/Graphics/SVG/1.1/DTD/svg11.dtd"><svg t="1605073826294" class="icon" viewBox="0 0 1024 1024" version="1.1" xmlns="http://www.w3.org/2000/svg" p-id="28600" xmlns:xlink="http://www.w3.org/1999/xlink" width="200" height="200"><defs><style type="text/css"></style></defs><path d="M604.48 559.36a96 96 0 1 0 96 96 96 96 0 0 0-96-96z m336.96-250.24a64 64 0 0 0-21.44-15.68l-582.72-256a48 48 0 0 0-41.28 85.12L624.96 288H149.44A117.44 117.44 0 0 0 32 405.44v469.44A117.12 117.12 0 0 0 149.44 992h725.12A117.12 117.12 0 0 0 992 874.88V405.44a117.12 117.12 0 0 0-50.56-96.32zM220.48 559.36A80 80 0 1 1 300.48 480a80 80 0 0 1-80 79.36z m384 368a272 272 0 1 1 272-272 272 272 0 0 1-272 272.64z" fill="#ffffff" p-id="28601" data-spm-anchor-id="a313x.7781069.0.i14" class="selected"></path></svg>