<?xml version="1.0" standalone="no"?><!DOCTYPE svg PUBLIC "-//W3C//DTD SVG 1.1//EN" "http://www.w3.org/Graphics/SVG/1.1/DTD/svg11.dtd"><svg t="1605073593057" class="icon" viewBox="0 0 1024 1024" version="1.1" xmlns="http://www.w3.org/2000/svg" p-id="22139" xmlns:xlink="http://www.w3.org/1999/xlink" width="200" height="200"><defs><style type="text/css"></style></defs><path d="M539.733333 198.4h-57.6a58.282667 58.282667 0 0 0-57.6 57.6v569.6h170.666667v-569.6c0-14.933333-6.4-29.866667-17.066667-40.533333s-21.333333-17.066667-38.4-17.066667z m228.266667 170.666667h-57.6a58.282667 58.282667 0 0 0-57.6 57.6v398.933333h170.666667v-398.933333c0-14.933333-6.4-29.866667-17.066667-40.533334-8.533333-10.666667-23.466667-17.066667-38.4-17.066666z m-398.933333 456.533333h-170.666667v-228.266667a58.282667 58.282667 0 0 1 57.6-57.6h57.6a58.282667 58.282667 0 0 1 57.6 57.6l-2.133333 228.266667z" p-id="22140" fill="#ffffff" data-spm-anchor-id="a313x.7781069.0.i10" class="selected"></path></svg>