<?xml version="1.0" standalone="no"?><!DOCTYPE svg PUBLIC "-//W3C//DTD SVG 1.1//EN" "http://www.w3.org/Graphics/SVG/1.1/DTD/svg11.dtd"><svg t="1604403224086" class="icon" viewBox="0 0 1355 1024" version="1.1" xmlns="http://www.w3.org/2000/svg" p-id="10520" xmlns:xlink="http://www.w3.org/1999/xlink" width="264.6484375" height="200"><defs><style type="text/css"></style></defs><path d="M1034.841513 535.613425a53.622626 53.622626 0 0 1-75.965386 0l-102.138335-102.776699v368.336369a53.622626 53.622626 0 1 1-107.245251 0V432.836726l-102.776699 102.776699A53.622626 53.622626 0 0 1 570.750456 459.648039l191.509377-191.509377a53.622626 53.622626 0 0 1 75.965386 0l191.509377 191.509377a52.984261 52.984261 0 0 1 5.106917 75.965386z m262.367846-63.836459a365.144545 365.144545 0 0 0-97.031418-98.946511 378.550202 378.550202 0 0 0-29.364771-123.204366 397.701139 397.701139 0 0 0-89.371042-127.672918A404.72315 404.72315 0 0 0 948.023929 28.751941 408.553337 408.553337 0 0 0 792.901333 0.025535a400.254598 400.254598 0 0 0-225.981065 67.666646 410.468431 410.468431 0 0 0-97.669782 91.286136 261.091117 261.091117 0 0 0-63.836459-7.660375 247.047096 247.047096 0 0 0-176.188626 70.85847 245.132002 245.132002 0 0 0-72.135199 202.361575 324.927576 324.927576 0 0 0-84.264126 72.773563A308.968461 308.968461 0 0 0 0.052513 702.226583a310.245191 310.245191 0 0 0 97.031417 228.534523 331.311222 331.311222 0 0 0 105.968522 69.581741 330.034493 330.034493 0 0 0 127.672918 23.619489h656.238799a360.037629 360.037629 0 0 0 255.345835-104.691792 360.037629 360.037629 0 0 0 81.072303-116.182356 354.292347 354.292347 0 0 0 27.449678-138.525116 344.716878 344.716878 0 0 0-54.26099-194.701199z" fill="#d81e06" p-id="10521" data-spm-anchor-id="a313x.7781069.0.i17" class="selected"></path></svg>