<?xml version="1.0" standalone="no"?><!DOCTYPE svg PUBLIC "-//W3C//DTD SVG 1.1//EN" "http://www.w3.org/Graphics/SVG/1.1/DTD/svg11.dtd"><svg t="1604402963482" class="icon" viewBox="0 0 1024 1024" version="1.1" xmlns="http://www.w3.org/2000/svg" p-id="5011" width="200" height="200" xmlns:xlink="http://www.w3.org/1999/xlink"><defs><style type="text/css"></style></defs><path d="M512 85.333333a426.666667 426.666667 0 1 0 426.666667 426.666667A426.666667 426.666667 0 0 0 512 85.333333z m164.266667 539.306667l-133.546667 133.973333a32 32 0 0 1-22.613333 9.386667h-16.213334a32.853333 32.853333 0 0 1-22.613333-9.386667l-133.546667-133.973333a21.333333 21.333333 0 0 1 0-30.293333l30.293334-30.293334a20.906667 20.906667 0 0 1 29.866666 0L469.333333 625.92V277.333333a21.333333 21.333333 0 0 1 21.333334-21.333333h42.666666a21.333333 21.333333 0 0 1 21.333334 21.333333v348.586667l61.44-61.866667a21.333333 21.333333 0 0 1 30.293333 0l29.866667 30.293334a21.333333 21.333333 0 0 1 0 30.293333z" p-id="5012" data-spm-anchor-id="a313x.7781069.0.i10" class="selected" fill="#d81e06"></path></svg>